<?xml version="1.0" encoding="utf-8"?>
<svg version="1.1" xmlns:xlink="http://www.w3.org/1999/xlink" width="30px" height="30px" xmlns="http://www.w3.org/2000/svg">
  <g transform="matrix(1 0 0 1 -416 -166 )">
    <path d="M 431 166  C 439.4 166  446 172.6  446 181  C 446 189.4  439.4 196  431 196  C 422.6 196  416 189.4  416 181  C 416 172.6  422.6 166  431 166  Z " fill-rule="nonzero" fill="#ffffff" stroke="none" />
    <path d="M 431 166.5  C 439.12 166.5  445.5 172.88  445.5 181  C 445.5 189.12  439.12 195.5  431 195.5  C 422.88 195.5  416.5 189.12  416.5 181  C 416.5 172.88  422.88 166.5  431 166.5  Z " stroke-width="1" stroke="#199ed8" fill="none" />
  </g>
</svg>