<?xml version="1.0" encoding="utf-8"?>
<svg version="1.1" xmlns:xlink="http://www.w3.org/1999/xlink" width="30px" height="23px" xmlns="http://www.w3.org/2000/svg">
  <g transform="matrix(1 0 0 1 -184 -480 )">
    <path d="M 19.8515625 11.9593039772727  C 19.9505208333333 11.8594460227272  20 11.7411931818182  20 11.6045454545455  C 20 11.4573863636364  19.953125 11.3365056818182  19.859375 11.2419034090909  L 14.359375 5.69190340909091  C 14.265625 5.59730113636363  14.1458333333333 5.55000000000001  14 5.55000000000001  C 13.8541666666667 5.55000000000001  13.734375 5.59730113636363  13.640625 5.69190340909091  L 8.15625 11.2261363636363  C 8.05208333333333 11.3522727272727  8 11.4784090909091  8 11.6045454545455  C 8 11.7517045454545  8.046875 11.8725852272727  8.140625 11.9671875  C 8.234375 12.0617897727273  8.35416666666667 12.1090909090909  8.5 12.1090909090909  L 12 12.1090909090909  L 12 17.6590909090909  C 12 17.7957386363636  12.0494791666667 17.9139914772727  12.1484375 18.0138494318182  C 12.2473958333333 18.1137073863636  12.3645833333333 18.1636363636363  12.5 18.1636363636363  L 15.5 18.1636363636363  C 15.6354166666667 18.1636363636363  15.7526041666667 18.1137073863636  15.8515625 18.0138494318182  C 15.9505208333333 17.9139914772727  16 17.7957386363636  16 17.6590909090909  L 16 12.1090909090909  L 19.5 12.1090909090909  C 19.6354166666667 12.1090909090909  19.7526041666667 12.0591619318182  19.8515625 11.9593039772727  Z M 28.6953125 12.3850142045454  C 29.5651041666667 13.4834517045455  30 14.7369318181818  30 16.1454545454545  C 30 17.8167613636364  29.4140625 19.2436789772727  28.2421875 20.4262073863636  C 27.0703125 21.6087357954545  25.65625 22.2  24 22  L 7 22  C 5.07291666666667 22.2  3.42447916666667 21.5088778409091  2.0546875 20.1266335227273  C 0.684895833333329 18.7443892045454  0 17.0809659090909  0 15.1363636363636  C 0 13.7698863636364  0.364583333333329 12.5085227272727  1.09375 11.3522727272727  C 1.82291666666667 10.1960227272727  2.80208333333333 9.32883522727275  4.03125 8.75071022727275  C 4.01041666666667 8.43536931818181  4 8.20937500000002  4 8.07272727272726  C 4 5.84431818181815  4.78125 3.94176136363637  6.34375 2.36505681818181  C 7.90625 0.788352272727252  9.79166666666667 0  12 0  C 13.625 0  15.1119791666667 0.457244318181836  16.4609375 1.37173295454545  C 17.8098958333333 2.28622159090907  18.7916666666667 3.50028409090908  19.40625 5.01392045454543  C 20.1458333333333 4.36221590909088  21.0104166666667 4.03636363636366  22 4.03636363636366  C 23.1041666666667 4.03636363636366  24.046875 4.43053977272729  24.828125 5.21889204545454  C 25.609375 6.00724431818179  26 6.95852272727274  26 8.07272727272726  C 26 8.87159090909091  25.7864583333333 9.59687500000001  25.359375 10.2485795454546  C 26.7135416666667 10.5744318181818  27.8255208333333 11.2865767045454  28.6953125 12.3850142045454  Z " fill-rule="nonzero" fill="#000000" stroke="none" transform="matrix(1 0 0 1 184 480 )" />
  </g>
</svg>