<?xml version="1.0" encoding="utf-8"?>
<svg version="1.1" xmlns:xlink="http://www.w3.org/1999/xlink" width="30px" height="23px" xmlns="http://www.w3.org/2000/svg">
  <g transform="matrix(1 0 0 1 -184 -325 )">
    <path d="M 19.84375 12.9920454545455  C 19.9479166666667 12.8659090909091  20 12.7397727272727  20 12.6136363636364  C 20 12.4664772727273  19.953125 12.3455965909091  19.859375 12.2509943181818  C 19.765625 12.1563920454545  19.6458333333333 12.1090909090909  19.5 12.1090909090909  L 16 12.1090909090909  L 16 6.55909090909091  C 16 6.42244318181815  15.9505208333333 6.30419034090909  15.8515625 6.2043323863636  C 15.7526041666667 6.10447443181818  15.6354166666667 6.05454545454546  15.5 6.05454545454546  L 12.5 6.05454545454546  C 12.3645833333333 6.05454545454546  12.2473958333333 6.10447443181818  12.1484375 6.2043323863636  C 12.0494791666667 6.30419034090909  12 6.42244318181815  12 6.55909090909091  L 12 12.1090909090909  L 8.5 12.1090909090909  C 8.36458333333333 12.1090909090909  8.24739583333333 12.1590198863636  8.1484375 12.2588778409091  C 8.04947916666667 12.3587357954545  8 12.4769886363636  8 12.6136363636364  C 8 12.7607954545455  8.046875 12.8816761363636  8.140625 12.9762784090909  L 13.640625 18.5262784090909  C 13.734375 18.6208806818182  13.8541666666667 18.6681818181818  14 18.6681818181818  C 14.1458333333333 18.6681818181818  14.265625 18.6208806818182  14.359375 18.5262784090909  L 19.84375 12.9920454545455  Z M 28.6953125 12.3850142045454  C 29.5651041666667 13.4834517045455  30 14.7369318181818  30 16.1454545454545  C 30 17.8167613636364  29.4140625 19.2436789772727  28.2421875 20.4262073863636  C 27.0703125 21.6087357954545  25.65625 22.2  24 22  L 7 22  C 5.07291666666667 22.2  3.42447916666667 21.5088778409091  2.0546875 20.1266335227273  C 0.684895833333329 18.7443892045454  0 17.0809659090909  0 15.1363636363636  C 0 13.7698863636364  0.364583333333329 12.5085227272727  1.09375 11.3522727272727  C 1.82291666666667 10.1960227272727  2.80208333333333 9.32883522727275  4.03125 8.75071022727275  C 4.01041666666667 8.43536931818181  4 8.20937500000002  4 8.07272727272726  C 4 5.84431818181815  4.78125 3.94176136363637  6.34375 2.36505681818181  C 7.90625 0.788352272727252  9.79166666666667 0  12 0  C 13.625 0  15.1119791666667 0.457244318181836  16.4609375 1.37173295454545  C 17.8098958333333 2.28622159090907  18.7916666666667 3.50028409090908  19.40625 5.01392045454543  C 20.1458333333333 4.36221590909088  21.0104166666667 4.03636363636366  22 4.03636363636366  C 23.1041666666667 4.03636363636366  24.046875 4.43053977272729  24.828125 5.21889204545454  C 25.609375 6.00724431818179  26 6.95852272727274  26 8.07272727272726  C 26 8.87159090909091  25.7864583333333 9.59687500000001  25.359375 10.2485795454546  C 26.7135416666667 10.5744318181818  27.8255208333333 11.2865767045454  28.6953125 12.3850142045454  Z " fill-rule="nonzero" fill="#000000" stroke="none" transform="matrix(1 0 0 1 184 325 )" />
  </g>
</svg>