<?xml version="1.0" encoding="utf-8"?>
<svg version="1.1" xmlns:xlink="http://www.w3.org/1999/xlink" width="12px" height="12px" viewBox="281 217  12 12" xmlns="http://www.w3.org/2000/svg">
  <path d="M 287 217  C 290.36 217  293 219.64  293 223  C 293 226.36  290.36 229  287 229  C 283.64 229  281 226.36  281 223  C 281 219.64  283.64 217  287 217  Z " fill-rule="nonzero" fill="#f0f0f0" stroke="none" />
  <path d="M 287 217.5  C 290.08 217.5  292.5 219.92  292.5 223  C 292.5 226.08  290.08 228.5  287 228.5  C 283.92 228.5  281.5 226.08  281.5 223  C 281.5 219.92  283.92 217.5  287 217.5  Z " stroke-width="1" stroke="#797979" fill="none" />
  <path d="M 287 226  C 285.32 226  284 224.68  284 223  C 284 221.32  285.32 220  287 220  C 288.68 220  290 221.32  290 223  C 290 224.68  288.68 226  287 226  " fill-rule="nonzero" fill="#797979" stroke="none" />
</svg>