<?xml version="1.0" encoding="utf-8"?>
<svg version="1.1" xmlns:xlink="http://www.w3.org/1999/xlink" width="12px" height="12px" viewBox="125 213  12 12" xmlns="http://www.w3.org/2000/svg">
  <path d="M 131 213  C 134.36 213  137 215.64  137 219  C 137 222.36  134.36 225  131 225  C 127.64 225  125 222.36  125 219  C 125 215.64  127.64 213  131 213  Z " fill-rule="nonzero" fill="#ffffff" stroke="none" />
  <path d="M 131 213.5  C 134.08 213.5  136.5 215.92  136.5 219  C 136.5 222.08  134.08 224.5  131 224.5  C 127.92 224.5  125.5 222.08  125.5 219  C 125.5 215.92  127.92 213.5  131 213.5  Z " stroke-width="1" stroke="#797979" fill="none" />
  <path d="M 131 222  C 129.32 222  128 220.68  128 219  C 128 217.32  129.32 216  131 216  C 132.68 216  134 217.32  134 219  C 134 220.68  132.68 222  131 222  " fill-rule="nonzero" fill="#797979" stroke="none" />
</svg>