<?xml version="1.0" encoding="utf-8"?>
<svg version="1.1" xmlns:xlink="http://www.w3.org/1999/xlink" width="12px" height="12px" viewBox="199 213  12 12" xmlns="http://www.w3.org/2000/svg">
  <path d="M 205 213  C 208.36 213  211 215.64  211 219  C 211 222.36  208.36 225  205 225  C 201.64 225  199 222.36  199 219  C 199 215.64  201.64 213  205 213  Z " fill-rule="nonzero" fill="#f0f0f0" stroke="none" />
  <path d="M 205 213.5  C 208.08 213.5  210.5 215.92  210.5 219  C 210.5 222.08  208.08 224.5  205 224.5  C 201.92 224.5  199.5 222.08  199.5 219  C 199.5 215.92  201.92 213.5  205 213.5  Z " stroke-width="1" stroke="#797979" fill="none" />
  <path d="M 205 222  C 203.32 222  202 220.68  202 219  C 202 217.32  203.32 216  205 216  C 206.68 216  208 217.32  208 219  C 208 220.68  206.68 222  205 222  " fill-rule="nonzero" fill="#797979" stroke="none" />
</svg>