<?xml version="1.0" encoding="utf-8"?>
<svg version="1.1" xmlns:xlink="http://www.w3.org/1999/xlink" width="12px" height="12px" viewBox="49 767  12 12" xmlns="http://www.w3.org/2000/svg">
  <path d="M 55 767  C 58.36 767  61 769.64  61 773  C 61 776.36  58.36 779  55 779  C 51.64 779  49 776.36  49 773  C 49 769.64  51.64 767  55 767  Z " fill-rule="nonzero" fill="#ffffff" stroke="none" />
  <path d="M 55 767.5  C 58.08 767.5  60.5 769.92  60.5 773  C 60.5 776.08  58.08 778.5  55 778.5  C 51.92 778.5  49.5 776.08  49.5 773  C 49.5 769.92  51.92 767.5  55 767.5  Z " stroke-width="1" stroke="#797979" fill="none" />
  <path d="M 55 776  C 53.32 776  52 774.68  52 773  C 52 771.32  53.32 770  55 770  C 56.68 770  58 771.32  58 773  C 58 774.68  56.68 776  55 776  " fill-rule="nonzero" fill="#797979" stroke="none" />
</svg>