<?xml version="1.0" encoding="utf-8"?>
<svg version="1.1" xmlns:xlink="http://www.w3.org/1999/xlink" width="12px" height="12px" viewBox="49 797  12 12" xmlns="http://www.w3.org/2000/svg">
  <path d="M 55 797  C 58.36 797  61 799.64  61 803  C 61 806.36  58.36 809  55 809  C 51.64 809  49 806.36  49 803  C 49 799.64  51.64 797  55 797  Z " fill-rule="nonzero" fill="#ffffff" stroke="none" />
  <path d="M 55 797.5  C 58.08 797.5  60.5 799.92  60.5 803  C 60.5 806.08  58.08 808.5  55 808.5  C 51.92 808.5  49.5 806.08  49.5 803  C 49.5 799.92  51.92 797.5  55 797.5  Z " stroke-width="1" stroke="#797979" fill="none" />
  <path d="M 55 806  C 53.32 806  52 804.68  52 803  C 52 801.32  53.32 800  55 800  C 56.68 800  58 801.32  58 803  C 58 804.68  56.68 806  55 806  " fill-rule="nonzero" fill="#797979" stroke="none" />
</svg>