<?xml version="1.0" encoding="utf-8"?>
<svg version="1.1" xmlns:xlink="http://www.w3.org/1999/xlink" width="12px" height="12px" viewBox="49 827  12 12" xmlns="http://www.w3.org/2000/svg">
  <path d="M 55 827  C 58.36 827  61 829.64  61 833  C 61 836.36  58.36 839  55 839  C 51.64 839  49 836.36  49 833  C 49 829.64  51.64 827  55 827  Z " fill-rule="nonzero" fill="#ffffff" stroke="none" />
  <path d="M 55 827.5  C 58.08 827.5  60.5 829.92  60.5 833  C 60.5 836.08  58.08 838.5  55 838.5  C 51.92 838.5  49.5 836.08  49.5 833  C 49.5 829.92  51.92 827.5  55 827.5  Z " stroke-width="1" stroke="#797979" fill="none" />
  <path d="M 55 836  C 53.32 836  52 834.68  52 833  C 52 831.32  53.32 830  55 830  C 56.68 830  58 831.32  58 833  C 58 834.68  56.68 836  55 836  " fill-rule="nonzero" fill="#797979" stroke="none" />
</svg>