<?xml version="1.0" encoding="utf-8"?>
<svg version="1.1" xmlns:xlink="http://www.w3.org/1999/xlink" width="12px" height="12px" viewBox="261 13  12 12" xmlns="http://www.w3.org/2000/svg">
  <path d="M 267 13  C 270.36 13  273 15.64  273 19  C 273 22.36  270.36 25  267 25  C 263.64 25  261 22.36  261 19  C 261 15.64  263.64 13  267 13  Z " fill-rule="nonzero" fill="#f0f0f0" stroke="none" />
  <path d="M 267 13.5  C 270.08 13.5  272.5 15.92  272.5 19  C 272.5 22.08  270.08 24.5  267 24.5  C 263.92 24.5  261.5 22.08  261.5 19  C 261.5 15.92  263.92 13.5  267 13.5  Z " stroke-width="1" stroke="#797979" fill="none" />
  <path d="M 267 22  C 265.32 22  264 20.68  264 19  C 264 17.32  265.32 16  267 16  C 268.68 16  270 17.32  270 19  C 270 20.68  268.68 22  267 22  " fill-rule="nonzero" fill="#797979" stroke="none" />
</svg>