<?xml version="1.0" encoding="utf-8"?>
<svg version="1.1" xmlns:xlink="http://www.w3.org/1999/xlink" width="12px" height="12px" viewBox="282 104  12 12" xmlns="http://www.w3.org/2000/svg">
  <path d="M 288 104  C 291.36 104  294 106.64  294 110  C 294 113.36  291.36 116  288 116  C 284.64 116  282 113.36  282 110  C 282 106.64  284.64 104  288 104  Z " fill-rule="nonzero" fill="#ffffff" stroke="none" />
  <path d="M 288 104.5  C 291.08 104.5  293.5 106.92  293.5 110  C 293.5 113.08  291.08 115.5  288 115.5  C 284.92 115.5  282.5 113.08  282.5 110  C 282.5 106.92  284.92 104.5  288 104.5  Z " stroke-width="1" stroke="#797979" fill="none" />
  <path d="M 288 113  C 286.32 113  285 111.68  285 110  C 285 108.32  286.32 107  288 107  C 289.68 107  291 108.32  291 110  C 291 111.68  289.68 113  288 113  " fill-rule="nonzero" fill="#797979" stroke="none" />
</svg>