<?xml version="1.0" encoding="utf-8"?>
<svg version="1.1" xmlns:xlink="http://www.w3.org/1999/xlink" width="12px" height="12px" viewBox="184 104  12 12" xmlns="http://www.w3.org/2000/svg">
  <path d="M 190 104  C 193.36 104  196 106.64  196 110  C 196 113.36  193.36 116  190 116  C 186.64 116  184 113.36  184 110  C 184 106.64  186.64 104  190 104  Z " fill-rule="nonzero" fill="#f0f0f0" stroke="none" />
  <path d="M 190 104.5  C 193.08 104.5  195.5 106.92  195.5 110  C 195.5 113.08  193.08 115.5  190 115.5  C 186.92 115.5  184.5 113.08  184.5 110  C 184.5 106.92  186.92 104.5  190 104.5  Z " stroke-width="1" stroke="#797979" fill="none" />
  <path d="M 190 113  C 188.32 113  187 111.68  187 110  C 187 108.32  188.32 107  190 107  C 191.68 107  193 108.32  193 110  C 193 111.68  191.68 113  190 113  " fill-rule="nonzero" fill="#797979" stroke="none" />
</svg>