<?xml version="1.0" encoding="utf-8"?>
<svg version="1.1" xmlns:xlink="http://www.w3.org/1999/xlink" width="12px" height="12px" viewBox="123 255  12 12" xmlns="http://www.w3.org/2000/svg">
  <path d="M 129 255  C 132.36 255  135 257.64  135 261  C 135 264.36  132.36 267  129 267  C 125.64 267  123 264.36  123 261  C 123 257.64  125.64 255  129 255  Z " fill-rule="nonzero" fill="#ffffff" stroke="none" />
  <path d="M 129 255.5  C 132.08 255.5  134.5 257.92  134.5 261  C 134.5 264.08  132.08 266.5  129 266.5  C 125.92 266.5  123.5 264.08  123.5 261  C 123.5 257.92  125.92 255.5  129 255.5  Z " stroke-width="1" stroke="#797979" fill="none" />
  <path d="M 129 264  C 127.32 264  126 262.68  126 261  C 126 259.32  127.32 258  129 258  C 130.68 258  132 259.32  132 261  C 132 262.68  130.68 264  129 264  " fill-rule="nonzero" fill="#797979" stroke="none" />
</svg>