<?xml version="1.0" encoding="utf-8"?>
<svg version="1.1" xmlns:xlink="http://www.w3.org/1999/xlink" width="12px" height="12px" viewBox="123 756  12 12" xmlns="http://www.w3.org/2000/svg">
  <path d="M 129 756  C 132.36 756  135 758.64  135 762  C 135 765.36  132.36 768  129 768  C 125.64 768  123 765.36  123 762  C 123 758.64  125.64 756  129 756  Z " fill-rule="nonzero" fill="#f0f0f0" stroke="none" />
  <path d="M 129 756.5  C 132.08 756.5  134.5 758.92  134.5 762  C 134.5 765.08  132.08 767.5  129 767.5  C 125.92 767.5  123.5 765.08  123.5 762  C 123.5 758.92  125.92 756.5  129 756.5  Z " stroke-width="1" stroke="#797979" fill="none" />
  <path d="M 129 765  C 127.32 765  126 763.68  126 762  C 126 760.32  127.32 759  129 759  C 130.68 759  132 760.32  132 762  C 132 763.68  130.68 765  129 765  " fill-rule="nonzero" fill="#797979" stroke="none" />
</svg>