<?xml version="1.0" encoding="utf-8"?>
<svg version="1.1" xmlns:xlink="http://www.w3.org/1999/xlink" width="12px" height="12px" viewBox="364 756  12 12" xmlns="http://www.w3.org/2000/svg">
  <path d="M 370 756  C 373.36 756  376 758.64  376 762  C 376 765.36  373.36 768  370 768  C 366.64 768  364 765.36  364 762  C 364 758.64  366.64 756  370 756  Z " fill-rule="nonzero" fill="#f0f0f0" stroke="none" />
  <path d="M 370 756.5  C 373.08 756.5  375.5 758.92  375.5 762  C 375.5 765.08  373.08 767.5  370 767.5  C 366.92 767.5  364.5 765.08  364.5 762  C 364.5 758.92  366.92 756.5  370 756.5  Z " stroke-width="1" stroke="#797979" fill="none" />
  <path d="M 370 765  C 368.32 765  367 763.68  367 762  C 367 760.32  368.32 759  370 759  C 371.68 759  373 760.32  373 762  C 373 763.68  371.68 765  370 765  " fill-rule="nonzero" fill="#797979" stroke="none" />
</svg>