<?xml version="1.0" encoding="utf-8"?>
<svg version="1.1" xmlns:xlink="http://www.w3.org/1999/xlink" width="12px" height="12px" viewBox="249 756  12 12" xmlns="http://www.w3.org/2000/svg">
  <path d="M 255 756  C 258.36 756  261 758.64  261 762  C 261 765.36  258.36 768  255 768  C 251.64 768  249 765.36  249 762  C 249 758.64  251.64 756  255 756  Z " fill-rule="nonzero" fill="#f0f0f0" stroke="none" />
  <path d="M 255 756.5  C 258.08 756.5  260.5 758.92  260.5 762  C 260.5 765.08  258.08 767.5  255 767.5  C 251.92 767.5  249.5 765.08  249.5 762  C 249.5 758.92  251.92 756.5  255 756.5  Z " stroke-width="1" stroke="#797979" fill="none" />
  <path d="M 255 765  C 253.32 765  252 763.68  252 762  C 252 760.32  253.32 759  255 759  C 256.68 759  258 760.32  258 762  C 258 763.68  256.68 765  255 765  " fill-rule="nonzero" fill="#797979" stroke="none" />
</svg>